<svg xmlns="http://www.w3.org/2000/svg" viewBox="0 0 886.04 199.07"><defs><style>.cls-1{fill:#fff;}</style></defs><g id="Camada_2" data-name="Camada 2"><g id="Layer_1" data-name="Layer 1"><path class="cls-1" d="M150.08,129c.11-31.33-.25-62.66.25-94,.17-11.71,1.11-23.39,2.3-35h-8.85a567.22,567.22,0,0,1,2.55,59c0,41.38.06,82.75,0,124.12C110.45,122.15,74.9,61,39.1,0H0C2,18.93,2.29,38,2.33,57c-.11,34,.25,68-.25,102C1.85,170.43,1,181.85,0,193.24H8.64c-1.87-19-2.3-38.13-2.31-57.23,0-42-.06-84,0-126q53.69,91.54,107,183.29c13.08,0,26.16,0,39.24,0C150.22,171.92,150,150.44,150.08,129Z"/><path class="cls-1" d="M514,38.77c6.34-2.3,13.06-4.34,18.12-9a12.45,12.45,0,0,0,3.63-13.25c-1.44-4.1-6.22-6.56-10.33-6.09-13.71,12.77-27,26-40.57,39l2,2.21A131.32,131.32,0,0,1,514,38.77Z"/><path class="cls-1" d="M707.54,32.14c6.81,6.19,13.73,12.26,20.55,18.42,6.75-6.11,13.53-12.2,20.4-18.19C741.91,26,734.91,20,728,13.94,721.18,20,714.42,26.14,707.54,32.14Z"/><path class="cls-1" d="M405.84,181.45c-2.81,5.32-8.1,10.25-14.54,9.67a10.1,10.1,0,0,1-8.91-6.25c-3-6.87-3-14.55-3.31-21.9V82.75c11.59,0,23.17,0,34.76,0,0-1.58,0-3.16,0-4.74-19,0-38,.07-57,0A39.08,39.08,0,0,0,376,62.45c6.62-10.38,8-23.09,7.92-35.14-8.26-.15-16.52,0-24.77-.07-.14,11,.67,22.3-2.55,33a23.39,23.39,0,0,1-10.34,13.65c-6.68,3.83-14.62,4.17-22.13,4.13,0,1.58,0,3.16,0,4.74h26.24q0,40.16,0,80.3c.48,10.25,2.2,21.61,10,29.06,7.51,6.94,18.51,7.62,28.18,6.57,8.59-1.06,16.11-6.71,20.35-14.13,7.27-12.38,9.61-26.82,11.86-40.79h-4.46C414.22,156.62,412.05,169.85,405.84,181.45Z"/><path class="cls-1" d="M290.52,83c-17-9.61-37.38-11.52-56.5-9.14-13,1.81-25.86,6.38-36.16,14.65A56.32,56.32,0,0,0,177.31,123c-2.75,16-.42,33.42,8.86,47.05,9.56,14.2,25.59,22.9,42.12,26.17A102.47,102.47,0,0,0,273.42,195c15.53-4.09,30.12-13.41,38.53-27.33,8.7-14.21,10.29-31.94,6.68-48C315.08,104.1,304.41,90.64,290.52,83Zm-2.12,61.83c-.9,11.58-3.24,23.52-9.88,33.28a33.64,33.64,0,0,1-22,14.54C244,195,229.77,192,221.14,182.19c-9.4-10.51-12.3-25.05-13.23-38.71-.71-15.7.2-32.23,7.54-46.46,4.64-9.14,13.23-16.28,23.35-18.39,10.62-2.27,22.5-1,31.41,5.61,7.56,5.54,12.26,14.14,14.89,23C288.65,119.39,289.19,132.24,288.4,144.82Z"/><path class="cls-1" d="M543.82,79.68c-15.6-6.72-33.11-7.9-49.82-5.84-14.37,2-28.62,7.46-39.39,17.4-12.14,11-18.63,27.5-18.3,43.76-.48,15.24,4.85,30.8,15.42,41.92,11.78,12.49,28.73,18.94,45.57,20.62,19.21,1.82,39.6-.78,56.15-11.3a56.71,56.71,0,0,0,25.66-37.05c2.77-14.71,1.35-30.63-6-43.85C566.7,93.71,556,84.83,543.82,79.68Zm2,81.31c-2.48,9.88-7.32,19.7-15.75,25.81-9.94,7.18-23.38,8.16-34.89,4.62-10.16-3.22-17.81-11.8-21.74-21.48-5.47-13.29-6.23-28-5.57-42.18.8-12.42,3.24-25.32,10.6-35.65A33.56,33.56,0,0,1,498.8,78.63c11.27-2.46,24.06-.66,33,7,9.66,8.17,13.93,20.85,15.71,33C549.43,132.68,549.23,147.16,545.86,161Z"/><path class="cls-1" d="M882.19,104.79c-.75-9.45-5.28-18.92-13.42-24.13-11.59-7.64-26.09-8.09-39.5-7.56a120.43,120.43,0,0,0-59.6,21.35c1,4.61,3.37,9.21,7.68,11.47,5,2.86,11.56,1.75,16-1.73,5.52-4.63,8.63-11.41,13.77-16.41,8-8.68,20.94-11.92,32.29-9.27,6.75,1.67,11.6,7.68,13,14.33,1.69,7.47,2.1,16.62-3.78,22.44-6.14,5.62-14.6,7.44-22.51,9.11-14.37,2.63-29.22,5-42.13,12.22-8.18,4.53-15.23,12-17.21,21.41-1.65,8.49-.94,18,4.27,25.21,5.49,7.93,14.91,12.13,24.15,13.83,13.07,2.15,27.25,1.15,39-5.52,9.24-5.16,15.76-14.16,19.35-24a217.06,217.06,0,0,0,2.16,25.72q15.18-.06,30.36,0C880.41,164.1,883,134.28,882.19,104.79Zm-31.7,59.08c-3.15,9.45-9.71,18.21-19.18,21.95-7.72,3-17.08,3.12-24.15-1.58-6.58-4.42-9.33-12.63-9.63-20.24-.73-9.28,2.06-19.29,9.38-25.45,10.09-9.2,24.41-9.73,36.61-14.44a24.68,24.68,0,0,0,10.12-7C852.88,132.7,855.49,148.81,850.49,163.87Z"/><path class="cls-1" d="M663.75,81.73c-12.86,6.46-22.24,17.79-31.48,28.49a320.39,320.39,0,0,1,2.11-32.47H600.77c2.05,15,2.44,30.13,2.56,45.24-.11,23.35.61,46.8-2.54,70h33.58c-3-25-2.12-50.17-2.31-75.27a136,136,0,0,1,18.67-17.39c5.11-3.71,11.17-6.78,17.67-6.34,3.83,0,7.34,1.68,11,2.55,4.86,1.08,10.76.74,14.24-3.29,3.69-4.2,3.6-10.24,2.74-15.44C685.46,75.87,673.76,76.6,663.75,81.73Z"/><path class="cls-1" d="M711.28,78c1.82,14.6,2.13,29.33,2.3,44-.1,23.67.57,47.43-2.29,71h33.58c-2-14.56-2.39-29.27-2.54-43.94.11-23.7-.65-47.51,2.54-71.06Z"/></g></g></svg>